<svg width="148" height="48" viewBox="0 0 148 48" fill="none" xmlns="http://www.w3.org/2000/svg">
<path d="M46.2423 20.0091L46.3258 19.0731H46.2736L45.7826 20.04L43.0559 24H41.9799V16.8H43.4111V20.7189L43.3066 21.6857H43.3693L43.8812 20.688L46.6079 16.8H47.6735V24H46.2423V20.0091Z" fill="white"/>
<path d="M55.1329 20.2663L55.2896 18.8366H55.2269L54.7777 19.9886L53.2211 22.6731H52.7614L51.1212 19.9783L50.6615 18.8366H50.6093L50.8182 20.256V24H49.4601V16.8H50.766L52.7196 20.0914L53.0644 20.9143H53.1061L53.4196 20.0709L55.2687 16.8H56.5641V24H55.1329V20.2663Z" fill="white"/>
<path d="M62.3289 18.0549H59.7693V24H58.3381V16.8H63.7601V24H62.3289V18.0549Z" fill="white"/>
<path d="M65.5327 16.8H69.8682V18.0549H66.9639V19.7314H69.607V20.9863H66.9639V22.7451H69.9204V24H65.5327V16.8Z" fill="white"/>
<path d="M71.5132 16.872C71.8057 16.8171 72.1261 16.776 72.4743 16.7486C72.8295 16.7143 73.1813 16.6971 73.5295 16.6971C73.8917 16.6971 74.2538 16.728 74.616 16.7897C74.9851 16.8446 75.3159 16.9611 75.6084 17.1394C75.901 17.3109 76.1378 17.5543 76.3189 17.8697C76.5069 18.1783 76.6009 18.5829 76.6009 19.0834C76.6009 19.536 76.5208 19.92 76.3606 20.2354C76.2005 20.544 75.988 20.7977 75.7234 20.9966C75.4587 21.1954 75.1557 21.3394 74.8145 21.4286C74.4802 21.5177 74.1319 21.5623 73.7698 21.5623C73.7349 21.5623 73.6792 21.5623 73.6026 21.5623C73.526 21.5623 73.4459 21.5623 73.3623 21.5623C73.2788 21.5554 73.1952 21.5486 73.1116 21.5417C73.035 21.5349 72.9793 21.528 72.9445 21.5211V24H71.5132V16.872ZM73.6444 17.9109C73.5051 17.9109 73.3728 17.9177 73.2474 17.9314C73.1221 17.9383 73.0211 17.9486 72.9445 17.9623V20.2971C72.9723 20.304 73.0141 20.3109 73.0698 20.3177C73.1255 20.3246 73.1847 20.3314 73.2474 20.3383C73.3101 20.3383 73.3693 20.3383 73.425 20.3383C73.4877 20.3383 73.533 20.3383 73.5608 20.3383C73.7489 20.3383 73.9334 20.3211 74.1145 20.2869C74.3026 20.2526 74.4697 20.1909 74.616 20.1017C74.7622 20.0057 74.8772 19.8754 74.9607 19.7109C75.0513 19.5463 75.0965 19.3303 75.0965 19.0629C75.0965 18.8366 75.0548 18.6514 74.9712 18.5074C74.8876 18.3566 74.7762 18.2366 74.6369 18.1474C74.5045 18.0583 74.3513 17.9966 74.1772 17.9623C74.0031 17.928 73.8255 17.9109 73.6444 17.9109Z" fill="white"/>
<path d="M82.2764 20.0091L82.36 19.0731H82.3078L81.8168 20.04L79.0901 24H78.014V16.8H79.4453V20.7189L79.3408 21.6857H79.4035L79.9154 20.688L82.6421 16.8H83.7077V24H82.2764V20.0091Z" fill="white"/>
<path d="M90.2895 24H88.8583V21.1509L88.1061 21.3463L86.5808 24H84.9197L86.4241 21.6034L87.0509 21.1611C86.828 21.1063 86.6191 21.024 86.4241 20.9143C86.2291 20.7977 86.0584 20.6503 85.9122 20.472C85.7659 20.2937 85.651 20.0846 85.5674 19.8446C85.4839 19.5977 85.4421 19.32 85.4421 19.0114C85.4421 18.5794 85.5187 18.216 85.6719 17.9211C85.8251 17.6263 86.0376 17.3897 86.3092 17.2114C86.5808 17.0263 86.9047 16.896 87.2808 16.8206C87.6568 16.7383 88.0643 16.6971 88.5031 16.6971C88.6215 16.6971 88.7573 16.7006 88.9105 16.7074C89.0637 16.7143 89.2204 16.7246 89.3806 16.7383C89.5478 16.752 89.708 16.7691 89.8612 16.7897C90.0214 16.8103 90.1641 16.8377 90.2895 16.872V24ZM88.3255 17.952C88.1374 17.952 87.9598 17.9691 87.7927 18.0034C87.6255 18.0377 87.4792 18.096 87.3539 18.1783C87.2285 18.2606 87.1275 18.3737 87.0509 18.5177C86.9813 18.6617 86.9464 18.8469 86.9464 19.0731C86.9464 19.2857 86.9813 19.4674 87.0509 19.6183C87.1206 19.7623 87.2181 19.8823 87.3434 19.9783C87.4688 20.0674 87.6151 20.1326 87.7822 20.1737C87.9494 20.2149 88.1304 20.2354 88.3255 20.2354H88.8583V18.0034C88.7816 17.9897 88.7015 17.9794 88.618 17.9726C88.5414 17.9589 88.4439 17.952 88.3255 17.952Z" fill="white"/>
<path d="M100.914 20.2663L101.071 18.8366H101.008L100.559 19.9886L99.0024 22.6731H98.5428L96.9026 19.9783L96.4429 18.8366H96.3907L96.5996 20.256V24H95.2415V16.8H96.5474L98.501 20.0914L98.8457 20.9143H98.8875L99.2009 20.0709L101.05 16.8H102.345V24H100.914V20.2663Z" fill="white"/>
<path d="M106.564 19.9783L106.773 20.9143H106.836L107.003 19.9474L108.1 16.8H109.573L107.63 21.7783C107.476 22.1691 107.327 22.5086 107.18 22.7966C107.041 23.0846 106.888 23.3246 106.721 23.5166C106.561 23.7017 106.379 23.8423 106.178 23.9383C105.976 24.0274 105.739 24.072 105.467 24.072C105.237 24.072 105.049 24.0549 104.903 24.0206C104.764 23.9931 104.61 23.928 104.443 23.8251L104.809 22.6834C104.927 22.7451 105.035 22.7829 105.133 22.7966C105.23 22.8103 105.335 22.8171 105.446 22.8171C105.774 22.8171 106.003 22.5634 106.136 22.056L103.399 16.8H105.081L106.564 19.9783Z" fill="white"/>
<path d="M112.191 20.3383L110.154 16.8H111.878L113.006 18.8777L113.257 19.608L113.497 18.8777L114.677 16.8H116.234L114.124 20.2663L116.339 24H114.636L113.351 21.7783L113.069 21.0171L112.797 21.7783L111.502 24H109.945L112.191 20.3383Z" fill="white"/>
<path d="M122.65 18.0549H120.519V24H119.088V18.0549H116.946V16.8H122.65V18.0549Z" fill="white"/>
<path d="M126.706 22.4057H124.46L123.906 24H122.475L125.108 16.7486H126.163L128.795 24H127.291L126.706 22.4057ZM124.825 21.2743H126.392L125.849 19.6697L125.63 18.5383H125.578L125.358 19.68L124.825 21.2743Z" fill="white"/>
<path d="M129.949 16.872C130.242 16.8171 130.562 16.776 130.911 16.7486C131.266 16.7143 131.617 16.6971 131.966 16.6971C132.328 16.6971 132.69 16.728 133.052 16.7897C133.421 16.8446 133.752 16.9611 134.045 17.1394C134.337 17.3109 134.574 17.5543 134.755 17.8697C134.943 18.1783 135.037 18.5829 135.037 19.0834C135.037 19.536 134.957 19.92 134.797 20.2354C134.637 20.544 134.424 20.7977 134.16 20.9966C133.895 21.1954 133.592 21.3394 133.251 21.4286C132.916 21.5177 132.568 21.5623 132.206 21.5623C132.171 21.5623 132.115 21.5623 132.039 21.5623C131.962 21.5623 131.882 21.5623 131.799 21.5623C131.715 21.5554 131.631 21.5486 131.548 21.5417C131.471 21.5349 131.415 21.528 131.381 21.5211V24H129.949V16.872ZM132.081 17.9109C131.941 17.9109 131.809 17.9177 131.684 17.9314C131.558 17.9383 131.457 17.9486 131.381 17.9623V20.2971C131.409 20.304 131.45 20.3109 131.506 20.3177C131.562 20.3246 131.621 20.3314 131.684 20.3383C131.746 20.3383 131.805 20.3383 131.861 20.3383C131.924 20.3383 131.969 20.3383 131.997 20.3383C132.185 20.3383 132.37 20.3211 132.551 20.2869C132.739 20.2526 132.906 20.1909 133.052 20.1017C133.198 20.0057 133.313 19.8754 133.397 19.7109C133.487 19.5463 133.533 19.3303 133.533 19.0629C133.533 18.8366 133.491 18.6514 133.407 18.5074C133.324 18.3566 133.212 18.2366 133.073 18.1474C132.941 18.0583 132.788 17.9966 132.613 17.9623C132.439 17.928 132.262 17.9109 132.081 17.9109Z" fill="white"/>
<path d="M139.248 22.4057H137.002L136.449 24H135.017L137.65 16.7486H138.705L141.338 24H139.834L139.248 22.4057ZM137.368 21.2743H138.935L138.392 19.6697L138.172 18.5383H138.12L137.901 19.68L137.368 21.2743Z" fill="white"/>
<path d="M43.0942 33.6137V33.168H43.5817C43.6653 33.168 43.7466 33.1543 43.8255 33.1269C43.9091 33.0994 43.9834 33.0629 44.0484 33.0172C44.1134 32.9669 44.1645 32.9097 44.2016 32.8457C44.2434 32.7772 44.2643 32.7063 44.2643 32.6332C44.2643 32.4549 44.2016 32.3292 44.0762 32.256C43.9509 32.1829 43.7628 32.1463 43.5121 32.1463C43.331 32.1463 43.1639 32.1737 43.0106 32.2286C42.8621 32.2834 42.746 32.336 42.6624 32.3863L42.5022 31.9612C42.6415 31.8834 42.804 31.8149 42.9897 31.7554C43.1801 31.696 43.4053 31.6663 43.6653 31.6663C44.4361 31.6663 44.8215 31.9474 44.8215 32.5097C44.8215 32.6697 44.7681 32.8274 44.6613 32.9829C44.5591 33.1337 44.4105 33.2412 44.2155 33.3052V33.3326C44.4895 33.3829 44.6798 33.4789 44.7866 33.6206C44.8981 33.7623 44.9538 33.9497 44.9538 34.1829C44.9538 34.3292 44.9236 34.464 44.8632 34.5874C44.8029 34.7109 44.7123 34.8183 44.5916 34.9097C44.4709 35.0012 44.3177 35.0743 44.132 35.1292C43.9509 35.1794 43.7396 35.2046 43.4982 35.2046C43.2614 35.2046 43.064 35.184 42.9062 35.1429C42.7529 35.1017 42.6136 35.0514 42.4883 34.992L42.6485 34.5394C42.7553 34.5989 42.8829 34.6446 43.0315 34.6766C43.1848 34.7086 43.3496 34.7246 43.526 34.7246C43.8093 34.7246 44.0252 34.6766 44.1737 34.5806C44.3223 34.4846 44.3966 34.3383 44.3966 34.1417C44.3966 33.9772 44.327 33.8492 44.1877 33.7577C44.0484 33.6617 43.8185 33.6137 43.4982 33.6137H43.0942Z" fill="white"/>
<path d="M45.9874 33.4286C45.9874 32.848 46.1174 32.4046 46.3774 32.0983C46.6421 31.7874 47.0205 31.632 47.5127 31.632C47.7727 31.632 47.9979 31.6754 48.1882 31.7623C48.3833 31.8446 48.5434 31.9657 48.6688 32.1257C48.7942 32.2812 48.887 32.4709 48.9474 32.6949C49.0078 32.9143 49.0379 33.1589 49.0379 33.4286C49.0379 34.0092 48.9056 34.4549 48.6409 34.7657C48.3809 35.072 48.0048 35.2252 47.5127 35.2252C47.2526 35.2252 47.0251 35.184 46.8301 35.1017C46.6398 35.0149 46.4819 34.8937 46.3565 34.7383C46.2312 34.5783 46.1383 34.3886 46.0779 34.1692C46.0176 33.9452 45.9874 33.6983 45.9874 33.4286ZM46.5655 33.4286C46.5655 33.6023 46.5817 33.7692 46.6142 33.9292C46.6514 34.0892 46.7071 34.2286 46.7814 34.3474C46.8557 34.4663 46.9532 34.5623 47.0739 34.6354C47.1946 34.7086 47.3409 34.7452 47.5127 34.7452C48.1441 34.7497 48.4599 34.3109 48.4599 33.4286C48.4599 33.2503 48.4413 33.0812 48.4041 32.9212C48.3716 32.7612 48.3182 32.6217 48.244 32.5029C48.1697 32.384 48.0722 32.2903 47.9514 32.2217C47.8307 32.1486 47.6845 32.112 47.5127 32.112C46.8812 32.1074 46.5655 32.5463 46.5655 33.4286Z" fill="white"/>
<path d="M50.0696 33.4286C50.0696 32.848 50.1996 32.4046 50.4597 32.0983C50.7243 31.7874 51.1027 31.632 51.5949 31.632C51.8549 31.632 52.0801 31.6754 52.2705 31.7623C52.4655 31.8446 52.6257 31.9657 52.751 32.1257C52.8764 32.2812 52.9693 32.4709 53.0296 32.6949C53.09 32.9143 53.1202 33.1589 53.1202 33.4286C53.1202 34.0092 52.9878 34.4549 52.7232 34.7657C52.4632 35.072 52.0871 35.2252 51.5949 35.2252C51.3349 35.2252 51.1074 35.184 50.9124 35.1017C50.722 35.0149 50.5641 34.8937 50.4388 34.7383C50.3134 34.5783 50.2205 34.3886 50.1602 34.1692C50.0998 33.9452 50.0696 33.6983 50.0696 33.4286ZM50.6477 33.4286C50.6477 33.6023 50.664 33.7692 50.6965 33.9292C50.7336 34.0892 50.7893 34.2286 50.8636 34.3474C50.9379 34.4663 51.0354 34.5623 51.1561 34.6354C51.2769 34.7086 51.4231 34.7452 51.5949 34.7452C52.2264 34.7497 52.5421 34.3109 52.5421 33.4286C52.5421 33.2503 52.5235 33.0812 52.4864 32.9212C52.4539 32.7612 52.4005 32.6217 52.3262 32.5029C52.2519 32.384 52.1544 32.2903 52.0337 32.2217C51.913 32.1486 51.7667 32.112 51.5949 32.112C50.9634 32.1074 50.6477 32.5463 50.6477 33.4286Z" fill="white"/>
<path d="M57.474 36.0137H57.098L56.9935 35.1429H54.3469V31.7143H54.9041V34.6629H56.4154V31.7143H56.9726V34.6629H57.474V36.0137Z" fill="white"/>
<path d="M61.0529 34.8686C60.9136 34.9783 60.7371 35.0652 60.5236 35.1292C60.3146 35.1932 60.0917 35.2252 59.8549 35.2252C59.5903 35.2252 59.3604 35.184 59.1654 35.1017C58.9704 35.0149 58.8102 34.8937 58.6849 34.7383C58.5595 34.5783 58.4666 34.3886 58.4063 34.1692C58.3459 33.9497 58.3157 33.7029 58.3157 33.4286C58.3157 32.8434 58.4481 32.3977 58.7127 32.0914C58.9774 31.7852 59.3558 31.632 59.848 31.632C60.0058 31.632 60.1637 31.6503 60.3216 31.6869C60.4794 31.7189 60.6211 31.7829 60.7464 31.8789C60.8718 31.9749 60.9739 32.112 61.0529 32.2903C61.1318 32.464 61.1713 32.6949 61.1713 32.9829C61.1713 33.1337 61.1573 33.3006 61.1295 33.4834H58.8938C58.8938 33.6846 58.9147 33.8629 58.9565 34.0183C58.9983 34.1737 59.0633 34.3063 59.1515 34.416C59.2397 34.5212 59.3535 34.6034 59.4928 34.6629C59.6367 34.7177 59.8108 34.7452 60.0151 34.7452C60.173 34.7452 60.3309 34.7177 60.4887 34.6629C60.6466 34.608 60.765 34.544 60.8439 34.4709L61.0529 34.8686ZM59.8549 32.112C59.581 32.112 59.3604 32.1829 59.1933 32.3246C59.0308 32.4663 58.9333 32.7086 58.9008 33.0514H60.628C60.628 32.704 60.5607 32.4617 60.426 32.3246C60.2914 32.1829 60.101 32.112 59.8549 32.112Z" fill="white"/>
<path d="M64.527 33.6274H62.9529V35.1429H62.3958V31.7143H62.9529V33.1474H64.527V31.7143H65.0841V35.1429H64.527V33.6274Z" fill="white"/>
<path d="M68.7269 32.1943H67.6335V35.1429H67.0763V32.1943H65.9828V31.7143H68.7269V32.1943Z" fill="white"/>
<path d="M69.6284 31.7143H70.0115L70.116 32.1257H70.1438C70.2506 31.9657 70.3876 31.8446 70.5547 31.7623C70.7265 31.6754 70.9216 31.632 71.1398 31.632C71.6041 31.632 71.95 31.7669 72.1775 32.0366C72.405 32.3063 72.5188 32.7474 72.5188 33.36C72.5188 33.648 72.4793 33.9086 72.4004 34.1417C72.3261 34.3703 72.2193 34.5646 72.08 34.7246C71.9407 34.8846 71.7712 35.008 71.5716 35.0949C71.3766 35.1817 71.1584 35.2252 70.9169 35.2252C70.7451 35.2252 70.6081 35.2137 70.506 35.1909C70.4085 35.1726 70.3017 35.1383 70.1856 35.088V36.5143H69.6284V31.7143ZM71.0353 32.112C70.7985 32.112 70.6105 32.1737 70.4712 32.2972C70.3365 32.416 70.2413 32.5989 70.1856 32.8457V34.5463C70.2692 34.6103 70.3644 34.6606 70.4712 34.6972C70.578 34.7292 70.7196 34.7452 70.896 34.7452C71.2164 34.7452 71.4694 34.6286 71.6552 34.3954C71.8455 34.1577 71.9407 33.8103 71.9407 33.3532C71.9407 33.1657 71.9245 32.9966 71.892 32.8457C71.8595 32.6903 71.8061 32.56 71.7318 32.4549C71.6621 32.3452 71.5693 32.2606 71.4532 32.2012C71.3418 32.1417 71.2025 32.112 71.0353 32.112Z" fill="white"/>
<g clip-path="url(#clip0_112_747)">
<path d="M14.7933 14.8781C12.7127 15.0326 10.9102 15.7933 9.50253 17.3232C8.88693 18.006 8.36293 18.7662 7.9438 19.5846C7.47514 20.4791 6.93782 21.2501 6.0812 21.8167C4.85893 22.6341 4.70786 23.9734 4.7422 25.2612C4.78168 27.0315 4.99627 28.8001 5.14562 30.5687C5.16965 30.8606 5.23832 31.149 5.31728 31.5989C4.51731 30.6597 4.41088 29.6363 4.22548 28.4893C2.78004 30.4244 2.3955 32.4729 2.63584 34.7274C2.52489 34.4645 2.43029 34.195 2.35259 33.9204C2.02905 32.5304 2.15281 31.0737 2.70622 29.7582C2.95514 29.1658 3.18861 28.5666 3.41349 27.9639C3.77577 26.9502 3.83542 25.8531 3.58516 24.8062C3.36886 23.7639 3.35684 22.6804 3.24182 21.6176C3.16801 20.9307 3.12509 20.2285 2.27362 19.9795C2.17234 19.9469 2.06934 19.6773 2.06934 19.5193C2.13285 15.57 1.94745 11.6208 2.61009 7.7007C2.7867 6.68808 3.05563 5.69375 3.41349 4.73017C3.91648 3.35651 4.88468 3.06976 6.11554 3.87163C7.41678 4.71643 8.40901 5.89778 9.19182 7.2079C9.95745 8.48884 10.5652 9.86593 11.1935 11.2276C12.3076 13.6572 12.117 13.9852 14.7933 14.8781ZM5.66405 19.351C6.63569 18.4204 7.57643 17.5103 8.51888 16.6175C9.43387 15.7435 10.0416 14.7287 10.0862 13.4203C10.2167 9.64271 8.56351 6.78035 5.62285 4.56877C4.76451 3.93001 4.4332 4.01587 4.07784 5.03237C2.70451 8.90437 2.66331 12.7987 4.00403 16.6861C4.34908 17.725 4.88983 18.6728 5.66405 19.351Z" fill="white"/>
<path d="M30.5737 32.2033C29.9834 31.3021 29.6347 30.2678 29.5604 29.1973C29.5142 28.3011 29.5284 27.4014 29.5462 26.5017C29.5884 25.1101 29.1285 23.749 28.2485 22.6608C27.077 21.1753 25.9856 19.6302 24.8337 18.1289C24.398 17.5477 23.914 17.0033 23.3867 16.5014C22.4346 15.6064 21.195 15.0684 19.8829 14.9808C20.4162 14.8931 20.9317 14.7686 21.4615 14.7265C22.3503 14.6546 23.1111 14.3284 23.6266 13.6023C24.3537 12.5834 25.0861 11.5609 25.7207 10.4858C26.9234 8.47865 28.5717 6.76668 30.5417 5.47867C31.9282 4.54564 32.801 4.81748 33.313 6.40468C33.6005 7.34593 33.7753 8.31713 33.8339 9.29848C34.0578 12.3484 33.4108 15.3141 32.8437 18.285C32.6659 19.2093 32.4473 20.1353 32.3833 21.0701C32.3193 22.0049 31.6722 22.4626 31.123 23.0519C30.9512 23.2329 30.839 23.461 30.8012 23.7061C30.6643 25.188 30.5043 26.6735 30.4652 28.1608C30.4297 29.5445 30.5346 30.9335 30.5737 32.2033ZM28.6449 21.256C28.9845 20.8684 29.3133 20.5124 29.6226 20.1406C33.0161 16.0893 33.5868 11.4434 32.5522 6.47133C32.4384 5.92238 31.9798 5.72946 31.4749 5.87327C31.0498 5.99619 30.651 6.19471 30.2981 6.45905C28.3382 7.92025 26.8551 9.91581 26.0318 12.1993C24.8852 15.3526 25.9358 19.0357 28.6449 21.256Z" fill="white"/>
<path d="M19.355 40.0139C18.7489 40.211 18.1593 39.7348 18.1593 39.0976V38.7641C18.1275 38.8061 18.1016 38.8523 18.0825 38.9013C17.7289 40.4928 17.8519 40.5176 16.1838 39.8924C15.1038 39.4884 14.2621 38.8041 14.2832 37.491C14.3044 36.3474 15.0154 35.4459 16.2953 34.9923C16.8558 34.7762 17.4551 34.6765 18.0561 34.6995C18.657 34.7224 19.2468 34.8675 19.7889 35.1257C20.8805 35.648 21.4435 36.5342 21.4128 37.754C21.382 38.8975 20.6441 39.4998 19.6833 39.9019C19.5744 39.9408 19.4649 39.9782 19.355 40.0139ZM15.3824 38.4001C15.8168 38.4496 16.2184 38.5545 16.6066 38.5183C16.8161 38.4973 17.2561 38.4058 17.2561 38.0208C17.2561 37.6358 16.9679 37.491 16.6354 37.4986C16.007 37.513 15.9614 37.7801 15.7188 38.2114C15.6627 38.3111 15.5266 38.3067 15.3824 38.4001ZM20.5807 38.4668C20.4627 38.4133 20.3841 38.3706 20.3309 38.2629C20.3309 38.0208 20.1387 37.5443 19.5756 37.6492C19.3662 37.7368 19.0818 37.8302 19.1394 38.2629C19.2062 38.7641 19.9235 38.6688 20.5807 38.4668Z" fill="white"/>
<path d="M22.9675 42.069C21.7223 43.1572 21.1304 43.3269 19.6449 42.4196C18.2459 41.5658 17.0813 41.5982 15.7553 42.513C13.1456 44.316 11.3027 42.9724 9.99978 40.8149C9.54433 40.062 9.356 39.1491 9.18689 38.2495L10.6147 40.8473L10.8261 40.8072C10.6474 38.2857 11.3085 35.9415 12.3366 33.6677C12.1617 34.6683 11.9522 35.6632 11.8273 36.6695C11.6926 37.7779 11.6163 38.8924 11.5986 40.0087C11.5879 40.4155 11.6599 40.8203 11.8105 41.1988C11.961 41.5774 12.187 41.9219 12.4749 42.2119C12.8593 42.6102 13.3167 42.7837 13.8413 42.5378C14.7752 42.109 15.7284 41.7087 16.6143 41.2037C17.5329 40.67 18.3439 40.6567 19.1837 41.3161C19.4751 41.5263 19.7821 41.7143 20.1022 41.8784C21.2341 42.5168 22.122 42.2176 22.6312 41.0093C23.1136 39.8657 23.0156 38.6688 22.8522 37.4891C22.6601 36.0825 22.3872 34.6874 22.1354 33.2065C23.4922 34.8989 23.8823 39.4826 22.9425 42.0994L22.9675 42.069Z" fill="white"/>
<path d="M8.24524 27.5212C8.43741 26.4405 8.91784 25.4247 9.84795 24.6852C10.5077 24.1749 11.2209 23.7365 11.9753 23.3777C13.0188 22.8726 13.7567 23.0747 14.2122 24.1401C14.5828 25.0583 14.8128 26.0265 14.8944 27.0123C14.9367 27.4278 14.5773 27.9309 14.2987 28.3235C13.6808 29.1765 13.0188 29.9971 12.3154 30.7822C12.6806 30.0293 13.013 29.2574 13.4185 28.5275C13.6437 28.1602 13.7572 27.7362 13.7453 27.3064C13.7333 26.8767 13.5965 26.4595 13.3512 26.1051C12.5557 24.8243 11.074 24.4965 9.9229 25.4875C9.25798 26.0517 8.78716 26.8484 8.24524 27.5212Z" fill="white"/>
<path d="M22.0605 23.0594C22.9099 23.5359 23.79 23.9571 24.6029 24.5022C25.6368 25.2055 26.1576 26.269 26.4612 27.6431C26.3701 27.5567 26.2841 27.4651 26.2037 27.3687C26.1654 27.2813 26.1224 27.1961 26.075 27.1133C25.6599 26.5682 25.3063 25.9526 24.8009 25.5009C23.9726 24.7595 22.6774 24.7385 21.9452 25.3465C20.9382 26.1737 20.6769 27.3896 21.2438 28.4798C21.6348 29.2199 21.9781 29.9838 22.2719 30.7669C21.6589 29.9817 21.0747 29.1717 20.4193 28.4207C19.8793 27.7994 19.6007 27.1209 19.7717 26.3242C19.8989 25.6238 20.1012 24.9389 20.3751 24.2811C20.6865 23.595 21.1919 23.0365 22.0797 23.088L22.0605 23.0594Z" fill="white"/>
<path d="M14.3409 43.567C15.1577 43.1287 15.9648 42.6712 16.7911 42.2557C17.1415 42.069 17.5368 41.9813 17.9339 42.0021C18.3311 42.0229 18.7149 42.1515 19.0434 42.3739L20.5615 43.3154C19.7102 44.8516 15.5459 45.0288 14.3409 43.567Z" fill="white"/>
<path fill-rule="evenodd" clip-rule="evenodd" d="M22.9271 25.5238C22.0296 25.6496 21.5223 26.2614 21.4531 27.2143C21.5627 27.2725 21.6712 27.2473 21.7788 27.2224C21.8735 27.2005 21.9674 27.1787 22.0604 27.2143C22.8975 27.5346 23.6306 27.5592 24.2704 26.9665C24.339 26.903 24.4115 26.8754 24.4835 26.8479C24.585 26.8093 24.6854 26.771 24.7719 26.633C24.4395 25.8382 23.7592 25.4075 22.9271 25.5238ZM23.1576 27.2118C23.6666 27.1872 24.0652 26.8807 24.0478 26.5272C24.0304 26.1737 23.6037 25.9071 23.0948 25.9317C22.5858 25.9563 22.1873 26.2628 22.2046 26.6163C22.222 26.9698 22.6487 27.2364 23.1576 27.2118Z" fill="white"/>
<path d="M23.9545 26.1455C23.9545 26.2849 23.8406 26.3979 23.7001 26.3979C23.5595 26.3979 23.4456 26.2849 23.4456 26.1455C23.4456 26.0061 23.5595 25.8931 23.7001 25.8931C23.8406 25.8931 23.9545 26.0061 23.9545 26.1455Z" fill="white"/>
<path fill-rule="evenodd" clip-rule="evenodd" d="M11.8031 25.6594C12.7005 25.7852 13.2079 26.397 13.2771 27.35C13.1675 27.4081 13.0589 27.383 12.9514 27.3581C12.8567 27.3361 12.7628 27.3144 12.6698 27.35C11.8327 27.6702 11.0996 27.6948 10.4598 27.1022C10.3912 27.0386 10.3187 27.011 10.2467 26.9836C10.1451 26.9449 10.0447 26.9067 9.95825 26.7687C10.2907 25.9739 10.971 25.5432 11.8031 25.6594ZM11.5725 27.3475C11.0636 27.3229 10.665 27.0164 10.6824 26.6629C10.6998 26.3094 11.1264 26.0427 11.6354 26.0673C12.1444 26.0919 12.5429 26.3984 12.5256 26.7519C12.5082 27.1054 12.0815 27.3721 11.5725 27.3475Z" fill="white"/>
<path d="M12.503 26.3979C12.503 26.5373 12.3891 26.6503 12.2486 26.6503C12.108 26.6503 11.9941 26.5373 11.9941 26.3979C11.9941 26.2585 12.108 26.1455 12.2486 26.1455C12.3891 26.1455 12.503 26.2585 12.503 26.3979Z" fill="white"/>
</g>
<defs>
<clipPath id="clip0_112_747">
<rect width="33.0824" height="41.1428" fill="white" transform="translate(1.30591 3.42856)"/>
</clipPath>
</defs>
</svg>
