<svg width="316" height="104" viewBox="0 0 316 104" fill="none" xmlns="http://www.w3.org/2000/svg">
<path d="M98.7332 43.3531L98.9117 41.3251H98.8002L97.7518 43.42L91.93 52H89.6324V36.4H92.6884V44.8908L92.4653 46.9857H92.5991L93.6921 44.824L99.514 36.4H101.789V52H98.7332V43.3531Z" fill="white"/>
<path d="M117.716 43.9103L118.05 40.8126H117.917L116.958 43.3086L113.634 49.1251H112.652L109.15 43.2863L108.169 40.8126H108.057L108.504 43.888V52H105.604V36.4H108.392L112.563 43.5314L113.299 45.3143H113.389L114.058 43.4868L118.006 36.4H120.772V52H117.716V43.9103Z" fill="white"/>
<path d="M133.08 39.1188H127.615V52H124.559V36.4H136.136V52H133.08V39.1188Z" fill="white"/>
<path d="M139.921 36.4H149.178V39.1188H142.977V42.7514H148.62V45.4703H142.977V49.2811H149.289V52H139.921V36.4Z" fill="white"/>
<path d="M152.69 36.556C153.315 36.4371 153.999 36.348 154.742 36.2886C155.501 36.2143 156.252 36.1771 156.995 36.1771C157.768 36.1771 158.542 36.244 159.315 36.3777C160.103 36.4966 160.809 36.7491 161.434 37.1354C162.059 37.5068 162.564 38.0343 162.951 38.7177C163.352 39.3863 163.553 40.2628 163.553 41.3474C163.553 42.328 163.382 43.16 163.04 43.8434C162.698 44.512 162.244 45.0617 161.679 45.4926C161.114 45.9234 160.467 46.2354 159.739 46.4286C159.025 46.6217 158.281 46.7183 157.508 46.7183C157.434 46.7183 157.315 46.7183 157.151 46.7183C156.988 46.7183 156.817 46.7183 156.638 46.7183C156.46 46.7034 156.281 46.6886 156.103 46.6737C155.939 46.6588 155.82 46.644 155.746 46.6291V52H152.69V36.556ZM157.241 38.8068C156.943 38.8068 156.661 38.8217 156.393 38.8514C156.125 38.8663 155.91 38.8886 155.746 38.9183V43.9771C155.806 43.992 155.895 44.0068 156.014 44.0217C156.133 44.0366 156.259 44.0514 156.393 44.0663C156.527 44.0663 156.653 44.0663 156.772 44.0663C156.906 44.0663 157.003 44.0663 157.062 44.0663C157.464 44.0663 157.858 44.0291 158.244 43.9548C158.646 43.8806 159.003 43.7468 159.315 43.5537C159.627 43.3457 159.873 43.0634 160.051 42.7068C160.244 42.3503 160.341 41.8823 160.341 41.3028C160.341 40.8126 160.252 40.4114 160.073 40.0994C159.895 39.7726 159.657 39.5126 159.36 39.3194C159.077 39.1263 158.75 38.9926 158.378 38.9183C158.006 38.844 157.627 38.8068 157.241 38.8068Z" fill="white"/>
<path d="M175.671 43.3531L175.85 41.3251H175.738L174.69 43.42L168.868 52H166.57V36.4H169.626V44.8908L169.403 46.9857H169.537L170.63 44.824L176.452 36.4H178.727V52H175.671V43.3531Z" fill="white"/>
<path d="M192.78 52H189.724V45.8268L188.118 46.2503L184.861 52H181.315L184.527 46.8074L185.865 45.8491C185.389 45.7303 184.943 45.552 184.527 45.3143C184.111 45.0617 183.746 44.7423 183.434 44.356C183.122 43.9697 182.876 43.5166 182.698 42.9966C182.519 42.4617 182.43 41.86 182.43 41.1914C182.43 40.2554 182.594 39.468 182.921 38.8291C183.248 38.1903 183.702 37.6777 184.282 37.2914C184.861 36.8903 185.553 36.608 186.356 36.4446C187.159 36.2663 188.029 36.1771 188.966 36.1771C189.219 36.1771 189.509 36.1846 189.836 36.1994C190.163 36.2143 190.497 36.2366 190.839 36.2663C191.196 36.296 191.538 36.3331 191.866 36.3777C192.208 36.4223 192.512 36.4817 192.78 36.556V52ZM188.587 38.896C188.185 38.896 187.806 38.9331 187.449 39.0074C187.092 39.0817 186.78 39.208 186.512 39.3863C186.244 39.5646 186.029 39.8097 185.865 40.1217C185.717 40.4337 185.642 40.8348 185.642 41.3251C185.642 41.7857 185.717 42.1794 185.865 42.5063C186.014 42.8183 186.222 43.0783 186.49 43.2863C186.757 43.4794 187.07 43.6206 187.427 43.7097C187.784 43.7988 188.17 43.8434 188.587 43.8434H189.724V39.0074C189.561 38.9777 189.39 38.9554 189.211 38.9406C189.048 38.9108 188.839 38.896 188.587 38.896Z" fill="white"/>
<path d="M215.465 43.9103L215.8 40.8126H215.666L214.707 43.3086L211.383 49.1251H210.402L206.9 43.2863L205.918 40.8126H205.807L206.253 43.888V52H203.353V36.4H206.141L210.313 43.5314L211.049 45.3143H211.138L211.807 43.4868L215.755 36.4H218.521V52H215.465V43.9103Z" fill="white"/>
<path d="M227.528 43.2863L227.975 45.3143H228.108L228.465 43.2194L230.807 36.4H233.953L229.804 47.1863C229.477 48.0331 229.157 48.7686 228.844 49.3926C228.547 50.0166 228.22 50.5366 227.863 50.9526C227.521 51.3537 227.134 51.6583 226.703 51.8663C226.272 52.0594 225.766 52.156 225.186 52.156C224.696 52.156 224.294 52.1188 223.982 52.0446C223.684 51.9851 223.357 51.844 223 51.6211L223.781 49.1474C224.034 49.2811 224.264 49.3628 224.473 49.3926C224.681 49.4223 224.904 49.4371 225.142 49.4371C225.841 49.4371 226.331 48.8874 226.614 47.788L220.77 36.4H224.361L227.528 43.2863Z" fill="white"/>
<path d="M239.543 44.0663L235.193 36.4H238.874L241.283 40.9017L241.818 42.484L242.331 40.9017L244.852 36.4H248.175L243.669 43.9103L248.398 52H244.762L242.019 47.1863L241.416 45.5371L240.837 47.1863L238.071 52H234.747L239.543 44.0663Z" fill="white"/>
<path d="M261.874 39.1188H257.324V52H254.268V39.1188H249.695V36.4H261.874V39.1188Z" fill="white"/>
<path d="M270.534 48.5457H265.738L264.556 52H261.5L267.121 36.2886H269.374L274.995 52H271.783L270.534 48.5457ZM266.519 46.0943H269.865L268.705 42.6177L268.237 40.1663H268.125L267.657 42.64L266.519 46.0943Z" fill="white"/>
<path d="M277.459 36.556C278.084 36.4371 278.768 36.348 279.511 36.2886C280.27 36.2143 281.021 36.1771 281.764 36.1771C282.538 36.1771 283.311 36.244 284.084 36.3777C284.872 36.4966 285.579 36.7491 286.203 37.1354C286.828 37.5068 287.333 38.0343 287.72 38.7177C288.122 39.3863 288.322 40.2628 288.322 41.3474C288.322 42.328 288.151 43.16 287.809 43.8434C287.467 44.512 287.014 45.0617 286.449 45.4926C285.883 45.9234 285.237 46.2354 284.508 46.4286C283.794 46.6217 283.051 46.7183 282.277 46.7183C282.203 46.7183 282.084 46.7183 281.92 46.7183C281.757 46.7183 281.586 46.7183 281.407 46.7183C281.229 46.7034 281.051 46.6886 280.872 46.6737C280.709 46.6588 280.59 46.644 280.515 46.6291V52H277.459V36.556ZM282.01 38.8068C281.712 38.8068 281.43 38.8217 281.162 38.8514C280.894 38.8663 280.679 38.8886 280.515 38.9183V43.9771C280.575 43.992 280.664 44.0068 280.783 44.0217C280.902 44.0366 281.028 44.0514 281.162 44.0663C281.296 44.0663 281.422 44.0663 281.541 44.0663C281.675 44.0663 281.772 44.0663 281.831 44.0663C282.233 44.0663 282.627 44.0291 283.013 43.9548C283.415 43.8806 283.772 43.7468 284.084 43.5537C284.396 43.3457 284.642 43.0634 284.82 42.7068C285.014 42.3503 285.11 41.8823 285.11 41.3028C285.11 40.8126 285.021 40.4114 284.843 40.0994C284.664 39.7726 284.426 39.5126 284.129 39.3194C283.846 39.1263 283.519 38.9926 283.147 38.9183C282.776 38.844 282.396 38.8068 282.01 38.8068Z" fill="white"/>
<path d="M297.314 48.5457H292.518L291.336 52H288.28L293.901 36.2886H296.154L301.775 52H298.563L297.314 48.5457ZM293.299 46.0943H296.645L295.485 42.6177L295.017 40.1663H294.905L294.437 42.64L293.299 46.0943Z" fill="white"/>
<path d="M92.0118 72.8297V71.864H93.0527C93.2311 71.864 93.4046 71.8343 93.5732 71.7748C93.7516 71.7154 93.9102 71.6362 94.049 71.5371C94.1878 71.4282 94.2969 71.3044 94.3762 71.1657C94.4654 71.0171 94.51 70.8636 94.51 70.7051C94.51 70.3188 94.3762 70.0465 94.1085 69.888C93.8408 69.7295 93.4393 69.6503 92.904 69.6503C92.5174 69.6503 92.1605 69.7097 91.8333 69.8286C91.5161 69.9474 91.2682 70.0613 91.0898 70.1703L90.7478 69.2491C91.0452 69.0807 91.3922 68.9322 91.7887 68.8034C92.1952 68.6746 92.676 68.6103 93.2311 68.6103C94.8768 68.6103 95.6997 69.2194 95.6997 70.4377C95.6997 70.7844 95.5857 71.1261 95.3576 71.4628C95.1395 71.7897 94.8223 72.0225 94.4059 72.1611V72.2206C94.9908 72.3295 95.3973 72.5375 95.6253 72.8446C95.8632 73.1516 95.9822 73.5577 95.9822 74.0628C95.9822 74.3798 95.9178 74.672 95.7889 74.9394C95.66 75.2068 95.4667 75.4396 95.2089 75.6377C94.9512 75.8358 94.624 75.9943 94.2275 76.1131C93.8408 76.2221 93.3898 76.2766 92.8743 76.2766C92.3687 76.2766 91.9473 76.232 91.6103 76.1428C91.2831 76.0537 90.9857 75.9447 90.718 75.816L91.06 74.8354C91.2881 74.9642 91.5607 75.0632 91.8779 75.1326C92.2051 75.2019 92.557 75.2366 92.9337 75.2366C93.5385 75.2366 93.9995 75.1326 94.3167 74.9246C94.6339 74.7166 94.7926 74.3996 94.7926 73.9737C94.7926 73.6171 94.6439 73.3398 94.3464 73.1417C94.049 72.9337 93.5583 72.8297 92.8743 72.8297H92.0118Z" fill="white"/>
<path d="M98.1891 72.4286C98.1891 71.1706 98.4667 70.2099 99.0218 69.5463C99.5869 68.8727 100.395 68.536 101.446 68.536C102.001 68.536 102.482 68.6301 102.888 68.8183C103.305 68.9966 103.647 69.259 103.914 69.6057C104.182 69.9425 104.38 70.3535 104.509 70.8388C104.638 71.3143 104.702 71.8442 104.702 72.4286C104.702 73.6865 104.42 74.6522 103.855 75.3257C103.3 75.9893 102.497 76.3211 101.446 76.3211C100.891 76.3211 100.405 76.232 99.9884 76.0537C99.582 75.8655 99.2449 75.603 98.9772 75.2663C98.7096 74.9196 98.5113 74.5086 98.3824 74.0331C98.2535 73.5478 98.1891 73.0129 98.1891 72.4286ZM99.4234 72.4286C99.4234 72.8049 99.4581 73.1665 99.5274 73.5131C99.6068 73.8598 99.7257 74.1619 99.8843 74.4194C100.043 74.6769 100.251 74.8849 100.509 75.0434C100.767 75.2019 101.079 75.2811 101.446 75.2811C102.794 75.291 103.468 74.3402 103.468 72.4286C103.468 72.0423 103.429 71.6758 103.349 71.3291C103.28 70.9825 103.166 70.6804 103.007 70.4228C102.849 70.1653 102.64 69.9623 102.383 69.8137C102.125 69.6552 101.813 69.576 101.446 69.576C100.097 69.5661 99.4234 70.5169 99.4234 72.4286Z" fill="white"/>
<path d="M106.905 72.4286C106.905 71.1706 107.183 70.2099 107.738 69.5463C108.303 68.8727 109.111 68.536 110.162 68.536C110.717 68.536 111.198 68.6301 111.604 68.8183C112.021 68.9966 112.363 69.259 112.63 69.6057C112.898 69.9425 113.096 70.3535 113.225 70.8388C113.354 71.3143 113.419 71.8442 113.419 72.4286C113.419 73.6865 113.136 74.6522 112.571 75.3257C112.016 75.9893 111.213 76.3211 110.162 76.3211C109.607 76.3211 109.121 76.232 108.705 76.0537C108.298 75.8655 107.961 75.603 107.693 75.2663C107.426 74.9196 107.227 74.5086 107.099 74.0331C106.97 73.5478 106.905 73.0129 106.905 72.4286ZM108.139 72.4286C108.139 72.8049 108.174 73.1665 108.244 73.5131C108.323 73.8598 108.442 74.1619 108.6 74.4194C108.759 74.6769 108.967 74.8849 109.225 75.0434C109.483 75.2019 109.795 75.2811 110.162 75.2811C111.51 75.291 112.184 74.3402 112.184 72.4286C112.184 72.0423 112.145 71.6758 112.065 71.3291C111.996 70.9825 111.882 70.6804 111.723 70.4228C111.565 70.1653 111.356 69.9623 111.099 69.8137C110.841 69.6552 110.529 69.576 110.162 69.576C108.814 69.5661 108.139 70.5169 108.139 72.4286Z" fill="white"/>
<path d="M122.715 78.0297H121.912L121.689 76.1428H116.038V68.7143H117.227V75.1028H120.454V68.7143H121.644V75.1028H122.715V78.0297Z" fill="white"/>
<path d="M130.356 75.5486C130.059 75.7863 129.682 75.9745 129.226 76.1131C128.78 76.2518 128.304 76.3211 127.798 76.3211C127.233 76.3211 126.742 76.232 126.326 76.0537C125.91 75.8655 125.568 75.603 125.3 75.2663C125.032 74.9196 124.834 74.5086 124.705 74.0331C124.576 73.5577 124.512 73.0228 124.512 72.4286C124.512 71.1607 124.794 70.195 125.359 69.5314C125.924 68.8678 126.732 68.536 127.783 68.536C128.12 68.536 128.457 68.5756 128.795 68.6548C129.132 68.7242 129.434 68.8628 129.702 69.0708C129.969 69.2788 130.187 69.576 130.356 69.9623C130.524 70.3386 130.609 70.8388 130.609 71.4628C130.609 71.7897 130.579 72.1512 130.52 72.5474H125.746C125.746 72.9832 125.791 73.3695 125.88 73.7063C125.969 74.043 126.108 74.3303 126.296 74.568C126.485 74.7958 126.728 74.9741 127.025 75.1028C127.332 75.2217 127.704 75.2811 128.14 75.2811C128.477 75.2811 128.814 75.2217 129.151 75.1028C129.488 74.984 129.741 74.8453 129.91 74.6868L130.356 75.5486ZM127.798 69.576C127.213 69.576 126.742 69.7295 126.385 70.0366C126.038 70.3436 125.83 70.8686 125.761 71.6114H129.449C129.449 70.8586 129.305 70.3337 129.018 70.0366C128.73 69.7295 128.324 69.576 127.798 69.576Z" fill="white"/>
<path d="M137.774 72.8594H134.413V76.1428H133.223V68.7143H134.413V71.8194H137.774V68.7143H138.963V76.1428H137.774V72.8594Z" fill="white"/>
<path d="M146.741 69.7543H144.406V76.1428H143.217V69.7543H140.882V68.7143H146.741V69.7543Z" fill="white"/>
<path d="M148.666 68.7143H149.484L149.707 69.6057H149.766C149.994 69.259 150.287 68.9966 150.644 68.8183C151.011 68.6301 151.427 68.536 151.893 68.536C152.884 68.536 153.623 68.8282 154.109 69.4126C154.594 69.9969 154.837 70.9527 154.837 72.28C154.837 72.904 154.753 73.4686 154.584 73.9737C154.426 74.4689 154.198 74.8899 153.9 75.2366C153.603 75.5832 153.241 75.8507 152.815 76.0388C152.398 76.227 151.932 76.3211 151.417 76.3211C151.05 76.3211 150.758 76.2964 150.54 76.2468C150.331 76.2072 150.103 76.1329 149.856 76.024V79.1143H148.666V68.7143ZM151.67 69.576C151.164 69.576 150.763 69.7097 150.465 69.9771C150.178 70.2346 149.975 70.6308 149.856 71.1657V74.8503C150.034 74.9889 150.237 75.0979 150.465 75.1771C150.693 75.2465 150.996 75.2811 151.372 75.2811C152.056 75.2811 152.597 75.0286 152.993 74.5234C153.4 74.0084 153.603 73.2556 153.603 72.2651C153.603 71.859 153.568 71.4926 153.499 71.1657C153.429 70.8289 153.315 70.5466 153.157 70.3188C153.008 70.0811 152.81 69.8979 152.562 69.7691C152.324 69.6404 152.027 69.576 151.67 69.576Z" fill="white"/>
<g clip-path="url(#clip0_112_465)">
<path d="M31.5857 32.2358C27.1433 32.5707 23.2947 34.2188 20.2892 37.5336C18.9747 39.0131 17.8559 40.6602 16.961 42.4332C15.9604 44.3715 14.8132 46.0419 12.9842 47.2696C10.3744 49.0405 10.0519 51.9424 10.1252 54.7326C10.2095 58.5683 10.6677 62.4002 10.9865 66.2321C11.0379 66.8646 11.1845 67.4896 11.3531 68.4643C9.64504 66.4293 9.41778 64.212 9.02193 61.7268C5.93572 65.9196 5.11469 70.358 5.62783 75.2428C5.39094 74.6731 5.18896 74.0891 5.02305 73.4942C4.33225 70.4825 4.59651 67.3263 5.77811 64.4761C6.30958 63.1926 6.80807 61.8942 7.28823 60.5884C8.06175 58.3922 8.1891 56.0151 7.65476 53.7467C7.19293 51.4885 7.16727 49.141 6.92169 46.8381C6.76409 45.35 6.67245 43.8283 4.85445 43.2889C4.63819 43.2182 4.41827 42.6341 4.41827 42.2919C4.55389 33.7351 4.15804 25.1784 5.57285 16.6849C5.94995 14.4909 6.52414 12.3365 7.28823 10.2487C8.36217 7.27246 10.4294 6.65117 13.0575 8.38856C15.8358 10.219 17.9543 12.7785 19.6257 15.6171C21.2605 18.3925 22.558 21.3762 23.8995 24.3264C26.2783 29.5907 25.8715 30.3013 31.5857 32.2358ZM12.0935 41.9273C14.1681 39.9108 16.1767 37.9391 18.1889 36.0045C20.1425 34.1109 21.4401 31.9122 21.5354 29.0773C21.8139 20.8926 18.2842 14.6908 12.0055 9.89901C10.1728 8.51505 9.46543 8.70106 8.70671 10.9035C5.77445 19.2928 5.68648 27.7305 8.5491 36.1533C9.28583 38.4041 10.4404 40.4577 12.0935 41.9273Z" fill="white"/>
<path d="M65.2788 69.7739C64.0185 67.8212 63.2741 65.5802 63.1153 63.2608C63.0167 61.319 63.047 59.3696 63.085 57.4203C63.175 54.4053 62.1932 51.4563 60.3143 49.0984C57.813 45.8799 55.4826 42.5321 53.0231 39.2794C52.0929 38.0201 51.0595 36.8405 49.9336 35.753C47.9008 33.8138 45.2541 32.6482 42.4526 32.4585C43.5913 32.2685 44.692 31.9987 45.823 31.9075C47.7208 31.7517 49.3453 31.0449 50.446 29.4718C51.9983 27.264 53.5621 25.0486 54.9171 22.7193C57.4849 18.3704 61.0043 14.6612 65.2105 11.8705C68.1709 9.84889 70.0345 10.4379 71.1276 13.8768C71.7414 15.9162 72.1146 18.0205 72.2397 20.1467C72.718 26.7548 71.3364 33.1805 70.1256 39.6176C69.7461 41.6201 69.2792 43.6265 69.1426 45.6519C69.006 47.6772 67.6244 48.669 66.4516 49.9458C66.0849 50.338 65.8454 50.8321 65.7646 51.3632C65.4723 54.5741 65.1308 57.7927 65.0473 61.015C64.9713 64.0132 65.1953 67.0227 65.2788 69.7739ZM61.1607 46.0547C61.8856 45.2149 62.5878 44.4435 63.2482 43.6379C70.4938 34.8601 71.7121 24.794 69.5032 14.0212C69.2603 12.8318 68.281 12.4138 67.2031 12.7254C66.2953 12.9918 65.4438 13.4219 64.6905 13.9946C60.5059 17.1606 57.3391 21.4843 55.5813 26.4318C53.1332 33.2641 55.3763 41.244 61.1607 46.0547Z" fill="white"/>
<path d="M39.9797 87.1005C39.3633 87.2672 38.7726 86.7915 38.7726 86.1529V83.9889C38.7046 84.08 38.6494 84.18 38.6085 84.2863C37.8535 87.7344 38.1161 87.788 34.5546 86.4336C32.2487 85.5581 30.4515 84.0757 30.4966 81.2304C30.5418 78.7528 32.0599 76.7995 34.7926 75.8167C35.9894 75.3485 37.269 75.1325 38.5521 75.1822C39.8353 75.2319 41.0946 75.5463 42.2521 76.1058C44.5826 77.2373 45.7849 79.1575 45.7192 81.8003C45.6536 84.278 44.078 85.5829 42.0264 86.4542C41.3532 86.6982 40.6704 86.9138 39.9797 87.1005ZM32.8436 83.2002C33.7709 83.3076 34.6285 83.5347 35.4573 83.4562C35.9045 83.4108 36.8442 83.2126 36.8442 82.3784C36.8442 81.5443 36.2287 81.2304 35.5188 81.247C34.1771 81.2782 34.0797 81.857 33.5617 82.7914C33.4419 83.0074 33.1513 82.9979 32.8436 83.2002ZM43.9426 83.3447C43.6907 83.2288 43.5229 83.1363 43.4092 82.9029C43.4092 82.3784 42.9988 81.3461 41.7966 81.5732C41.3494 81.7632 40.7421 81.9655 40.8652 82.9029C41.0078 83.9889 42.5393 83.7825 43.9426 83.3447Z" fill="white"/>
<path d="M49.0387 91.1494C46.3799 93.5073 45.1161 93.8749 41.9444 91.9092C38.9573 90.0592 36.4708 90.1294 33.6397 92.1116C28.0676 96.0181 24.1327 93.1068 21.3508 88.4322C20.3784 86.8011 19.9762 84.8231 19.6152 82.874L22.6638 88.5024L23.1151 88.4157C22.7335 82.9524 24.145 77.8732 26.3402 72.9467C25.9668 75.1147 25.5196 77.2703 25.2529 79.4506C24.9652 81.8521 24.8023 84.2669 24.7646 86.6855C24.7416 87.5669 24.8954 88.4439 25.2169 89.2641C25.5384 90.0844 26.0209 90.8309 26.6356 91.4591C27.4562 92.3222 28.4328 92.698 29.5529 92.1653C31.5471 91.2361 33.5822 90.3689 35.4738 89.2746C37.435 88.1184 39.1666 88.0895 40.9596 89.5183C41.5818 89.9738 42.2374 90.381 42.9209 90.7365C45.3377 92.1198 47.2333 91.4715 48.3206 88.8534C49.3505 86.3757 49.1413 83.7824 48.7925 81.2263C48.3822 78.1788 47.7995 75.156 47.262 71.9474C50.1588 75.6144 50.9918 85.5457 48.9853 91.2155L49.0387 91.1494Z" fill="white"/>
<path d="M17.6046 59.6292C18.0149 57.2878 19.0407 55.0868 21.0266 53.4845C22.4353 52.3789 23.9581 51.4292 25.5688 50.6517C27.7968 49.5574 29.3724 49.9951 30.3448 52.3035C31.1362 54.2931 31.6272 56.3907 31.8014 58.5266C31.8917 59.4268 31.1244 60.517 30.5295 61.3677C29.2103 63.2157 27.7969 64.9938 26.295 66.6947C27.0746 65.0636 27.7845 63.3911 28.6502 61.8095C29.1311 61.0137 29.3734 60.095 29.3479 59.1639C29.3224 58.2329 29.0303 57.329 28.5066 56.561C26.8079 53.786 23.6444 53.0757 21.1866 55.223C19.767 56.4454 18.7617 58.1715 17.6046 59.6292Z" fill="white"/>
<path d="M47.102 49.9621C48.9155 50.9945 50.7948 51.9071 52.5304 53.0881C54.7379 54.6119 55.8498 56.9161 56.4981 59.8935C56.3035 59.7062 56.1199 59.5076 55.9483 59.2988C55.8665 59.1096 55.7748 58.9249 55.6734 58.7455C54.7871 57.5645 54.0321 56.2306 52.953 55.252C51.1846 53.6456 48.4191 53.6002 46.8558 54.9175C44.7057 56.7097 44.1477 59.3443 45.3581 61.7063C46.193 63.3099 46.9262 64.965 47.5533 66.6617C46.2444 64.9603 44.9971 63.2053 43.5979 61.5783C42.4449 60.2321 41.85 58.762 42.2151 57.0359C42.4867 55.5183 42.9186 54.0343 43.5035 52.6091C44.1682 51.1225 45.2474 49.9125 47.143 50.024L47.102 49.9621Z" fill="white"/>
<path d="M30.6198 94.3952C32.3636 93.4454 34.0869 92.4543 35.8512 91.5541C36.5992 91.1495 37.4433 90.9594 38.2913 91.0045C39.1393 91.0497 39.9587 91.3284 40.6601 91.8101L43.9016 93.8501C42.0839 97.1785 33.1924 97.5625 30.6198 94.3952Z" fill="white"/>
<path fill-rule="evenodd" clip-rule="evenodd" d="M48.9525 55.3015C47.0364 55.5741 45.9531 56.8996 45.8054 58.9644C46.0393 59.0904 46.2711 59.0359 46.5007 58.9819C46.7029 58.9344 46.9034 58.8873 47.102 58.9644C48.8893 59.6583 50.4546 59.7116 51.8206 58.4275C51.9671 58.2898 52.122 58.23 52.2757 58.1706C52.4925 58.0867 52.7069 58.0039 52.8915 57.7049C52.1817 55.9829 50.7292 55.0496 48.9525 55.3015ZM49.4448 58.959C50.5315 58.9057 51.3825 58.2416 51.3454 57.4757C51.3083 56.7098 50.3973 56.1321 49.3105 56.1853C48.2238 56.2386 47.3729 56.9027 47.41 57.6687C47.447 58.4346 48.3581 59.0123 49.4448 58.959Z" fill="white"/>
<path d="M51.1463 56.6486C51.1463 56.9506 50.903 57.1954 50.6029 57.1954C50.3028 57.1954 50.0596 56.9506 50.0596 56.6486C50.0596 56.3465 50.3028 56.1017 50.6029 56.1017C50.903 56.1017 51.1463 56.3465 51.1463 56.6486Z" fill="white"/>
<path fill-rule="evenodd" clip-rule="evenodd" d="M25.2011 55.5954C27.1172 55.8679 28.2005 57.1935 28.3482 59.2582C28.1143 59.3843 27.8825 59.3298 27.6529 59.2758C27.4507 59.2283 27.2502 59.1811 27.0516 59.2582C25.2643 59.9522 23.699 60.0055 22.333 58.7214C22.1865 58.5837 22.0316 58.5238 21.8779 58.4644C21.6611 58.3806 21.4467 58.2978 21.2621 57.9987C21.9719 56.2768 23.4244 55.3435 25.2011 55.5954ZM24.7088 59.2529C23.6221 59.1996 22.7711 58.5355 22.8082 57.7696C22.8453 57.0036 23.7563 56.4259 24.8431 56.4792C25.9298 56.5325 26.7807 57.1966 26.7436 57.9625C26.7066 58.7285 25.7955 59.3062 24.7088 59.2529Z" fill="white"/>
<path d="M26.6956 57.1954C26.6956 57.4975 26.4523 57.7423 26.1522 57.7423C25.8521 57.7423 25.6089 57.4975 25.6089 57.1954C25.6089 56.8934 25.8521 56.6485 26.1522 56.6485C26.4523 56.6485 26.6956 56.8934 26.6956 57.1954Z" fill="white"/>
</g>
<defs>
<clipPath id="clip0_112_465">
<rect width="70.6353" height="89.1429" fill="white" transform="translate(2.78821 7.42856)"/>
</clipPath>
</defs>
</svg>
